Coordinates
version=1
nRows=19
nColumns=36
inDegrees=yes

Units are S.I. units (second, meters, Newtons, ...)
If the header above contains a line with 'inDegrees', this indicates whether rotational values are in degrees (yes) or radians (no).

endheader
time	pelvis_tilt	pelvis_list	pelvis_rotation	pelvis_tx	pelvis_ty	pelvis_tz	hip_flexion_r	hip_adduction_r	hip_rotation_r	knee_angle_r	knee_angle_r_beta	ankle_angle_r	subtalar_angle_r	mtp_angle_r	hip_flexion_l	hip_adduction_l	hip_rotation_l	knee_angle_l	knee_angle_l_beta	ankle_angle_l	subtalar_angle_l	mtp_angle_l	lumbar_extension	lumbar_bending	lumbar_rotation	arm_flex_r	arm_add_r	arm_rot_r	elbow_flex_r	pro_sup_r	arm_flex_l	arm_add_l	arm_rot_l	elbow_flex_l	pro_sup_l
      0.99000000	      0.39652771	     -1.75680529	      5.32405075	      1.16684441	      0.96587956	     -0.17748543	     24.59982203	      2.06300683	      8.38460065	     17.60465620	      0.30725921	      1.71065671	     -1.43135931	     -7.19058987	     -9.31202071	      0.28838522	      3.29075096	      5.97153319	      0.10422292	     15.17811242	     10.20318669	     -7.19058987	     -8.37679918	     -1.29766520	     -6.25838534	     -1.57269636	     -6.96154788	      3.20616276	     31.92901507	    108.09754457	      9.85135956	    -13.35841923	     19.79887393	     39.04062082	    109.98318485
      1.00000000	      0.20679022	     -1.70321831	      5.63615236	      1.17755027	      0.96402079	     -0.17719611	     24.41137960	      1.83310981	      9.50564284	     14.25274321	      0.24875730	      2.03860374	     -0.37130676	     -7.19378934	     -9.92006431	      0.18182180	      3.24394419	      5.75922307	      0.10051740	     15.44126014	     10.72080290	     -7.19378934	     -8.21233762	     -1.37802616	     -6.74175636	     -1.96500764	     -6.98334701	      3.11282049	     31.58228530	    108.10866736	     10.52448836	    -13.35764082	     19.90820572	     39.66800680	    109.99279972
      1.01000000	      0.12535218	     -1.64755931	      5.94158494	      1.18841331	      0.96220069	     -0.17688735	     24.16365769	      1.58535788	     10.20430563	     11.38473439	      0.19870110	      2.41732646	      0.56873544	     -7.19622540	    -10.59520995	      0.05945793	      3.12285300	      5.65572255	      0.09871098	     15.76308704	     11.12934458	     -7.19622540	     -8.14884727	     -1.47829954	     -7.15187274	     -2.35010418	     -7.02283907	      3.01676803	     31.19073907	    108.11760290	     11.19094346	    -13.32154084	     20.01504862	     40.31474715	    110.00902899
      1.02000000	      0.07845888	     -1.63320433	      6.25685310	      1.19938686	      0.96036671	     -0.17657921	     23.91973023	      1.39603061	     10.65822094	      9.03147407	      0.15762896	      2.82974837	      1.39430627	     -7.19822589	    -11.22135918	     -0.11332836	      3.00851996	      5.71190978	      0.09969163	     16.09887603	     11.46713921	     -7.19822589	     -8.14616827	     -1.48111997	     -7.53695231	     -2.71306824	     -7.06719640	      2.91789716	     30.79414741	    108.12337484	     11.83138566	    -13.27924816	     20.12738362	     40.94553684	    110.02843178
      1.03000000	      0.21357072	     -1.76302722	      6.61577249	      1.21041184	      0.95879862	     -0.17624169	     23.44779286	      1.39161771	     11.09943363	      7.11382341	      0.12415964	      3.22564181	      2.34028994	     -7.20083700	    -11.91383739	     -0.49675156	      2.92797892	      6.00409019	      0.10479114	     16.54903359	     11.90532493	     -7.20083700	     -8.37434880	     -1.26539780	     -8.03003226	     -2.89938071	     -7.11291872	      2.76490892	     30.38531732	    108.13383272	     12.41995143	    -13.27412369	     20.33426958	     41.60420860	    110.04298347
      1.04000000	      0.46412167	     -1.93292450	      6.96276065	      1.22166850	      0.95739491	     -0.17589064	     22.99884557	      1.48120980	     10.67899790	      6.00803868	      0.10486006	      3.93445278	      3.79989358	     -7.21942585	    -12.53106724	     -1.00822342	      1.93862828	      6.65869493	      0.11621615	     17.63021121	     13.87859416	     -7.21942585	     -8.70980639	     -0.98738597	     -8.44972786	     -3.11239761	     -7.16542011	      2.42667121	     29.98901637	    108.36435971	     12.98711333	    -13.29517803	     20.74041403	     42.33332508	    109.75332503
      1.05000000	      0.45640274	     -2.08976004	      7.33587144	      1.23301979	      0.95574131	     -0.17550982	     22.80431455	      1.60160032	     10.58045608	      5.41718790	      0.09454777	      4.26606527	      3.77660290	     -7.22110592	    -12.86709633	     -1.40682388	      2.10794784	      7.32044907	      0.12776594	     17.71257744	     13.78868387	     -7.22110592	     -8.70654717	     -0.74414858	     -8.76499754	     -3.44815941	     -7.26890701	      2.33969930	     29.61074027	    108.35156330	     13.51548592	    -13.13988016	     20.84990535	     42.80524587	    109.77649377
      1.06000000	      0.58514129	     -2.31478003	      7.75264652	      1.24447614	      0.95440205	     -0.17515150	     22.45573445	      1.83951665	     10.26963237	      5.32234126	      0.09289238	      4.50250153	      3.53302221	     -7.22292556	    -13.21578614	     -1.91027270	      2.28306845	      8.21592501	      0.14339494	     17.89542262	     13.60782678	     -7.22292556	     -8.85744952	     -0.37993277	     -9.17551457	     -3.64901137	     -7.36666193	      2.20225609	     29.19653477	    108.32598046	     13.97025124	    -13.03672546	     21.06268224	     43.28026107	    109.80632344
      1.07000000	      0.70565756	     -2.55678079	      8.21607537	      1.25614492	      0.95315817	     -0.17482237	     22.12670661	      2.11191407	      9.60067279	      5.65853210	      0.09876002	      4.43958333	      2.82232191	     -7.22864631	    -13.43663843	     -2.44846833	      2.48002198	      9.33880846	      0.16299296	     18.34930787	     13.36150698	     -7.22864631	     -8.94726440	      0.02077417	     -9.67892736	     -3.77486132	     -7.40769099	      1.91842746	     28.65987956	    108.28784251	     14.28812117	    -13.07680038	     21.57246822	     43.83110265	    109.79415085
      1.08000000	      0.79666788	     -2.80029658	      8.62069859	      1.26795045	      0.95202053	     -0.17441371	     21.84136505	      2.42690198	      8.92127100	      6.32788813	      0.11044248	      4.20653635	      1.84344803	     -7.23393270	    -13.54392467	     -2.96596164	      2.70703543	     10.60080611	      0.18501897	     18.37440605	     12.98017653	     -7.23393270	     -8.98676515	      0.43432072	    -10.01801434	     -3.96561434	     -7.50166583	      1.68593611	     28.21446334	    108.24687291	     14.59381986	    -12.98278873	     21.93111144	     44.22539015	    109.75710875
      1.09000000	      0.97364169	     -3.00978804	      8.96953181	      1.27991511	      0.95115125	     -0.17398303	     21.43532902	      2.73306211	      8.23638700	      7.15732025	      0.12491880	      3.94223471	      1.05611218	     -7.23596657	    -13.69022368	     -3.43956237	      2.93786541	     11.97077907	      0.20892951	     18.08242949	     12.61014660	     -7.23596657	     -9.15213076	      0.84206984	    -10.16817767	     -4.16340546	     -7.63803817	      1.54925356	     27.81003220	    108.20994502	     14.91136960	    -12.77505013	     22.10409378	     44.60053010	    109.76379335
      1.10000000	      1.04835027	     -3.22771090	      9.33053334	      1.29204834	      0.95025743	     -0.17346383	     21.15825690	      3.03284628	      7.22744519	      8.04915671	      0.14048429	      3.14362669	     -0.10039638	     -7.23900362	    -13.54053516	     -3.90844693	      3.18892178	     13.69960233	      0.23910317	     17.77777378	     11.86735212	     -7.23900362	     -9.13240133	      1.22426470	    -10.42532630	     -4.29970297	     -7.72894479	      1.30566975	     27.30762931	    108.15149141	     15.00357240	    -12.70037520	     22.43830886	     44.97589121	    109.76527205
      1.11000000	      1.12467676	     -3.40868279	      9.60115157	      1.30426081	      0.94956226	     -0.17287676	     20.82103186	      3.31258683	      6.58071540	      8.85739700	      0.15459074	      2.18317839	     -0.97615580	     -7.24156844	    -13.34528489	     -4.29414936	      3.54210152	     15.51908449	      0.27085912	     17.19727623	     11.17140578	     -7.24156844	     -9.15260155	      1.60022533	    -10.50922759	     -4.42740564	     -7.84301328	      1.09520166	     26.83511870	    108.09772839	     15.09972006	    -12.55821016	     22.67650338	     45.33152303	    109.76353088
      1.12000000	      1.08759453	     -3.60914604	      9.82876055	      1.31667556	      0.94884942	     -0.17216321	     20.58276469	      3.60986907	      5.91714232	      9.54582100	      0.16660601	      0.77191328	     -2.01114672	     -7.24526088	    -12.88074793	     -4.66298271	      3.87917395	     17.59897002	      0.30715997	     16.37315142	     10.10998363	     -7.24526088	     -8.96391628	      1.94516610	    -10.62933949	     -4.51115686	     -7.93283374	      0.80465882	     26.31857934	    108.02892178	     14.99232415	    -12.47617348	     22.96863137	     45.63427838	    109.73881559
      1.13000000	      1.04200142	     -3.78689557	      9.97810322	      1.32915534	      0.94829926	     -0.17129308	     20.32811200	      3.93713517	      5.60174491	     10.17756850	      0.17763208	     -0.70201561	     -3.05265469	     -7.25081861	    -12.31093806	     -4.95420212	      4.33640870	     19.82620459	      0.34603255	     15.19022334	      8.90298511	     -7.25081861	     -8.79164082	      2.28243978	    -10.59661248	     -4.57886512	     -8.03294042	      0.47944996	     25.81719848	    107.95369580	     14.85637109	    -12.37434982	     23.16943946	     45.89215029	    109.66489707
      1.14000000	      1.18249830	     -3.94296056	     10.06052670	      1.34179908	      0.94812166	     -0.17029668	     19.84389008	      4.29484587	      5.19447003	     10.76416901	      0.18787019	     -1.52228316	     -3.49441676	     -7.25419029	    -11.77869618	     -5.30193778	      4.33238989	     22.32111779	      0.38957700	     13.82929464	      8.13233186	     -7.25419029	     -8.85336186	      2.60626256	    -10.39704087	     -4.66238879	     -8.15538896	      0.26814220	     25.42212374	    107.90071458	     14.74093412	    -12.22741444	     23.26552409	     46.09273528	    109.62552231
      1.15000000	      1.53510338	     -4.05547507	     10.07861441	      1.35436946	      0.94836194	     -0.16921678	     19.15372893	      4.69858096	      5.18701322	     11.49852049	      0.20068704	     -1.89372531	     -3.59437158	     -7.25536277	    -11.42661298	     -5.60430348	      4.52883997	     24.85389485	      0.43378230	     12.51674817	      7.83106596	     -7.25536277	     -9.24004661	      2.92185838	    -10.02074335	     -4.67167408	     -8.31607672	      0.15534761	     25.10870285	    107.86749136	     14.71479558	    -12.00319829	     23.28682126	     46.27026430	    109.61873687
      1.16000000	      1.36220609	     -4.42693985	     10.07033675	      1.36724015	      0.94789814	     -0.16784672	     19.11560310	      5.29295237	      4.65037188	     12.26722148	      0.21410340	     -2.27431294	     -4.15200106	     -7.25903225	    -10.01487811	     -6.25854388	      3.90038509	     28.08105952	      0.49010695	     10.12263694	      6.74936214	     -7.25903225	     -8.77714944	      3.39711641	     -9.83084859	     -4.70579848	     -8.40065003	     -0.19323067	     24.65873683	    107.78742210	     14.27818130	    -11.93811460	     23.46129029	     46.26834451	    109.56664353
      1.17000000	      1.82123174	     -4.57173587	      9.99429313	      1.37972576	      0.94844768	     -0.16646333	     18.33884942	      5.82485228	      4.80910438	     13.15747250	      0.22964122	     -2.11372749	     -4.37367314	     -7.26039803	     -9.37455131	     -6.66630428	      3.84013814	     31.15120543	      0.54369110	      8.28745224	      6.46470861	     -7.26039803	     -9.32454550	      3.72229139	     -9.30147979	     -4.59660592	     -8.52916650	     -0.30686716	     24.39871765	    107.75395021	     14.23766590	    -11.76164910	     23.44182137	     46.31755546	    109.54099471
